<mxfile host="app.diagrams.net" agent="Mozilla/5.0 (X11; Linux x86_64) AppleWebKit/537.36 (KHTML, like Gecko) Chrome/131.0.0.0 Safari/537.36" version="25.0.3">
  <diagram name="Page-1" id="qEzmkFf06ybFjCuSIuCM">
    <mxGraphModel dx="1426" dy="743" grid="1" gridSize="10" guides="1" tooltips="1" connect="1" arrows="1" fold="1" page="1" pageScale="1" pageWidth="827" pageHeight="1169" math="0" shadow="0">
      <root>
        <mxCell id="0" />
        <mxCell id="1" parent="0" />
        <mxCell id="WiZxdRvPhTLr7Fi5d71Z-1" value="" style="image;aspect=fixed;perimeter=ellipsePerimeter;html=1;align=center;shadow=0;dashed=0;spacingTop=3;image=img/lib/active_directory/internet_cloud.svg;" vertex="1" parent="1">
          <mxGeometry x="40" y="110" width="174.6" height="110" as="geometry" />
        </mxCell>
        <mxCell id="WiZxdRvPhTLr7Fi5d71Z-14" style="edgeStyle=orthogonalEdgeStyle;rounded=0;orthogonalLoop=1;jettySize=auto;html=1;entryX=0.5;entryY=1;entryDx=0;entryDy=0;sketch=1;curveFitting=1;jiggle=2;curved=1;" edge="1" parent="1" source="WiZxdRvPhTLr7Fi5d71Z-2" target="WiZxdRvPhTLr7Fi5d71Z-1">
          <mxGeometry relative="1" as="geometry" />
        </mxCell>
        <mxCell id="WiZxdRvPhTLr7Fi5d71Z-2" value="" style="fontColor=#0066CC;verticalAlign=top;verticalLabelPosition=bottom;labelPosition=center;align=center;html=1;outlineConnect=0;fillColor=#CCCCCC;strokeColor=#6881B3;gradientColor=none;gradientDirection=north;strokeWidth=2;shape=mxgraph.networks.router;" vertex="1" parent="1">
          <mxGeometry x="77.3" y="290" width="100" height="30" as="geometry" />
        </mxCell>
        <mxCell id="WiZxdRvPhTLr7Fi5d71Z-13" style="edgeStyle=orthogonalEdgeStyle;rounded=0;orthogonalLoop=1;jettySize=auto;html=1;sketch=1;curveFitting=1;jiggle=2;curved=1;" edge="1" parent="1" source="WiZxdRvPhTLr7Fi5d71Z-3" target="WiZxdRvPhTLr7Fi5d71Z-2">
          <mxGeometry relative="1" as="geometry" />
        </mxCell>
        <mxCell id="WiZxdRvPhTLr7Fi5d71Z-3" value="" style="image;aspect=fixed;perimeter=ellipsePerimeter;html=1;align=center;shadow=0;dashed=0;spacingTop=3;image=img/lib/active_directory/firewall.svg;" vertex="1" parent="1">
          <mxGeometry x="112.05" y="390" width="30.5" height="50" as="geometry" />
        </mxCell>
        <mxCell id="WiZxdRvPhTLr7Fi5d71Z-12" style="edgeStyle=orthogonalEdgeStyle;rounded=0;orthogonalLoop=1;jettySize=auto;html=1;entryX=1;entryY=0.25;entryDx=0;entryDy=0;sketch=1;curveFitting=1;jiggle=2;curved=1;" edge="1" parent="1" source="WiZxdRvPhTLr7Fi5d71Z-4" target="WiZxdRvPhTLr7Fi5d71Z-3">
          <mxGeometry relative="1" as="geometry" />
        </mxCell>
        <mxCell id="WiZxdRvPhTLr7Fi5d71Z-4" value="" style="image;html=1;image=img/lib/clip_art/networking/Switch_128x128.png" vertex="1" parent="1">
          <mxGeometry x="260" y="375" width="80" height="80" as="geometry" />
        </mxCell>
        <mxCell id="WiZxdRvPhTLr7Fi5d71Z-9" style="rounded=0;orthogonalLoop=1;jettySize=auto;html=1;sketch=1;curveFitting=1;jiggle=2;edgeStyle=entityRelationEdgeStyle;" edge="1" parent="1" source="WiZxdRvPhTLr7Fi5d71Z-5" target="WiZxdRvPhTLr7Fi5d71Z-8">
          <mxGeometry relative="1" as="geometry" />
        </mxCell>
        <mxCell id="WiZxdRvPhTLr7Fi5d71Z-10" style="rounded=0;orthogonalLoop=1;jettySize=auto;html=1;sketch=1;curveFitting=1;jiggle=2;edgeStyle=entityRelationEdgeStyle;" edge="1" parent="1" source="WiZxdRvPhTLr7Fi5d71Z-5" target="WiZxdRvPhTLr7Fi5d71Z-7">
          <mxGeometry relative="1" as="geometry" />
        </mxCell>
        <mxCell id="WiZxdRvPhTLr7Fi5d71Z-11" style="edgeStyle=orthogonalEdgeStyle;rounded=0;orthogonalLoop=1;jettySize=auto;html=1;entryX=1;entryY=0.25;entryDx=0;entryDy=0;sketch=1;curveFitting=1;jiggle=2;curved=1;" edge="1" parent="1" source="WiZxdRvPhTLr7Fi5d71Z-5" target="WiZxdRvPhTLr7Fi5d71Z-4">
          <mxGeometry relative="1" as="geometry" />
        </mxCell>
        <mxCell id="WiZxdRvPhTLr7Fi5d71Z-5" value="" style="image;html=1;image=img/lib/clip_art/networking/Wireless_Router_128x128.png" vertex="1" parent="1">
          <mxGeometry x="440" y="360" width="80" height="80" as="geometry" />
        </mxCell>
        <mxCell id="WiZxdRvPhTLr7Fi5d71Z-7" value="" style="verticalLabelPosition=bottom;sketch=0;aspect=fixed;html=1;verticalAlign=top;strokeColor=none;align=center;outlineConnect=0;shape=mxgraph.citrix.cell_phone;" vertex="1" parent="1">
          <mxGeometry x="600" y="480" width="25" height="60" as="geometry" />
        </mxCell>
        <mxCell id="WiZxdRvPhTLr7Fi5d71Z-8" value="" style="sketch=0;pointerEvents=1;shadow=0;dashed=0;html=1;strokeColor=none;fillColor=#505050;labelPosition=center;verticalLabelPosition=bottom;verticalAlign=top;outlineConnect=0;align=center;shape=mxgraph.office.devices.tv;" vertex="1" parent="1">
          <mxGeometry x="583" y="300" width="59" height="45" as="geometry" />
        </mxCell>
      </root>
    </mxGraphModel>
  </diagram>
</mxfile>
